<mxfile host="Electron" agent="Mozilla/5.0 (Windows NT 10.0; Win64; x64) AppleWebKit/537.36 (KHTML, like Gecko) draw.io/26.0.16 Chrome/132.0.6834.196 Electron/34.2.0 Safari/537.36" version="26.0.16">
  <diagram name="Page-1" id="ZwdNj-Oy84gk6GsXlvdf">
    <mxGraphModel dx="944" dy="1640" grid="1" gridSize="10" guides="1" tooltips="1" connect="1" arrows="1" fold="1" page="1" pageScale="1" pageWidth="850" pageHeight="1100" math="0" shadow="0">
      <root>
        <mxCell id="0" />
        <mxCell id="1" parent="0" />
        <mxCell id="0aPcPJzKvKqHbsKZW9t1-7" value="" style="rounded=0;whiteSpace=wrap;html=1;" parent="1" vertex="1">
          <mxGeometry x="200" y="118" width="160" height="122" as="geometry" />
        </mxCell>
        <mxCell id="0aPcPJzKvKqHbsKZW9t1-8" value="SYNC_READY" style="text;html=1;align=left;verticalAlign=bottom;whiteSpace=wrap;rounded=0;fontFamily=Lucida Console;" parent="1" vertex="1">
          <mxGeometry x="200" y="100" width="160" height="20" as="geometry" />
        </mxCell>
        <mxCell id="0aPcPJzKvKqHbsKZW9t1-9" value="" style="rounded=0;whiteSpace=wrap;html=1;" parent="1" vertex="1">
          <mxGeometry x="480" y="118" width="160" height="122" as="geometry" />
        </mxCell>
        <mxCell id="0aPcPJzKvKqHbsKZW9t1-10" value="DETECT_READY" style="text;html=1;align=left;verticalAlign=bottom;whiteSpace=wrap;rounded=0;fontFamily=Lucida Console;" parent="1" vertex="1">
          <mxGeometry x="480" y="100" width="160" height="20" as="geometry" />
        </mxCell>
        <mxCell id="0aPcPJzKvKqHbsKZW9t1-11" value="btnRSync" style="text;html=1;align=left;verticalAlign=bottom;whiteSpace=wrap;rounded=0;fontFamily=Lucida Console;spacingRight=0;spacingLeft=12;" parent="1" vertex="1">
          <mxGeometry x="360" y="147.49999999999994" width="120" height="20" as="geometry" />
        </mxCell>
        <mxCell id="0aPcPJzKvKqHbsKZW9t1-12" value="" style="endArrow=none;html=1;rounded=0;" parent="1" edge="1">
          <mxGeometry width="50" height="50" relative="1" as="geometry">
            <mxPoint x="360" y="167.49999999999994" as="sourcePoint" />
            <mxPoint x="480" y="167.49999999999994" as="targetPoint" />
          </mxGeometry>
        </mxCell>
        <mxCell id="0aPcPJzKvKqHbsKZW9t1-13" value="readyEn" style="text;html=1;align=left;verticalAlign=bottom;whiteSpace=wrap;rounded=0;fontFamily=Lucida Console;spacingRight=0;spacingLeft=12;" parent="1" vertex="1">
          <mxGeometry x="640" y="158.99999999999994" width="120" height="20" as="geometry" />
        </mxCell>
        <mxCell id="0aPcPJzKvKqHbsKZW9t1-14" value="" style="endArrow=none;html=1;rounded=0;" parent="1" edge="1">
          <mxGeometry width="50" height="50" relative="1" as="geometry">
            <mxPoint x="640" y="178.99999999999994" as="sourcePoint" />
            <mxPoint x="740" y="179" as="targetPoint" />
          </mxGeometry>
        </mxCell>
        <mxCell id="0aPcPJzKvKqHbsKZW9t1-18" style="edgeStyle=orthogonalEdgeStyle;rounded=0;orthogonalLoop=1;jettySize=auto;html=1;exitX=1;exitY=0.5;exitDx=0;exitDy=0;exitPerimeter=0;entryX=0;entryY=0.5;entryDx=0;entryDy=0;endArrow=none;startFill=0;" parent="1" source="0aPcPJzKvKqHbsKZW9t1-17" edge="1">
          <mxGeometry relative="1" as="geometry">
            <mxPoint x="200" y="166.5" as="targetPoint" />
          </mxGeometry>
        </mxCell>
        <mxCell id="0aPcPJzKvKqHbsKZW9t1-17" value="btnR" style="html=1;shadow=0;dashed=0;align=center;verticalAlign=middle;shape=mxgraph.arrows2.arrow;dy=0;dx=10;notch=0;fontFamily=Lucida Console;spacingRight=16;" parent="1" vertex="1">
          <mxGeometry x="40" y="154" width="100" height="25" as="geometry" />
        </mxCell>
        <mxCell id="0aPcPJzKvKqHbsKZW9t1-19" value="" style="rounded=0;whiteSpace=wrap;html=1;" parent="1" vertex="1">
          <mxGeometry x="477" y="278" width="160" height="200" as="geometry" />
        </mxCell>
        <mxCell id="0aPcPJzKvKqHbsKZW9t1-20" value="SEQ_REG" style="text;html=1;align=left;verticalAlign=bottom;whiteSpace=wrap;rounded=0;fontFamily=Lucida Console;" parent="1" vertex="1">
          <mxGeometry x="477" y="260" width="160" height="20" as="geometry" />
        </mxCell>
        <mxCell id="0aPcPJzKvKqHbsKZW9t1-21" value="" style="group" parent="1" vertex="1" connectable="0">
          <mxGeometry x="40" y="940.0000000000001" width="220" height="65.57000000000005" as="geometry" />
        </mxCell>
        <mxCell id="0aPcPJzKvKqHbsKZW9t1-1" value="btnD" style="html=1;shadow=0;dashed=0;align=center;verticalAlign=middle;shape=mxgraph.arrows2.arrow;dy=0;dx=10;notch=0;fontFamily=Lucida Console;spacingRight=16;" parent="0aPcPJzKvKqHbsKZW9t1-21" vertex="1">
          <mxGeometry y="7.5699999999998795" width="100" height="22.43" as="geometry" />
        </mxCell>
        <mxCell id="0aPcPJzKvKqHbsKZW9t1-2" value="clk" style="html=1;shadow=0;dashed=0;align=center;verticalAlign=middle;shape=mxgraph.arrows2.arrow;dy=0;dx=10;notch=0;fontFamily=Lucida Console;spacingRight=16;" parent="0aPcPJzKvKqHbsKZW9t1-21" vertex="1">
          <mxGeometry y="40.57000000000005" width="100" height="25" as="geometry" />
        </mxCell>
        <mxCell id="0aPcPJzKvKqHbsKZW9t1-3" value="clock" style="text;html=1;align=left;verticalAlign=bottom;whiteSpace=wrap;rounded=0;fontFamily=Lucida Console;spacingRight=0;spacingLeft=12;" parent="0aPcPJzKvKqHbsKZW9t1-21" vertex="1">
          <mxGeometry x="100" width="120" height="20" as="geometry" />
        </mxCell>
        <mxCell id="0aPcPJzKvKqHbsKZW9t1-4" value="" style="endArrow=none;html=1;rounded=0;" parent="0aPcPJzKvKqHbsKZW9t1-21" edge="1">
          <mxGeometry width="50" height="50" relative="1" as="geometry">
            <mxPoint x="100" y="20" as="sourcePoint" />
            <mxPoint x="180" y="19.57000000000005" as="targetPoint" />
          </mxGeometry>
        </mxCell>
        <mxCell id="0aPcPJzKvKqHbsKZW9t1-5" value="reset" style="text;html=1;align=left;verticalAlign=bottom;whiteSpace=wrap;rounded=0;fontFamily=Lucida Console;spacingRight=0;spacingLeft=12;" parent="0aPcPJzKvKqHbsKZW9t1-21" vertex="1">
          <mxGeometry x="100" y="33" width="120" height="20" as="geometry" />
        </mxCell>
        <mxCell id="0aPcPJzKvKqHbsKZW9t1-6" value="" style="endArrow=none;html=1;rounded=0;entryX=0.657;entryY=0.979;entryDx=0;entryDy=0;entryPerimeter=0;" parent="0aPcPJzKvKqHbsKZW9t1-21" target="0aPcPJzKvKqHbsKZW9t1-5" edge="1">
          <mxGeometry width="50" height="50" relative="1" as="geometry">
            <mxPoint x="100" y="53" as="sourcePoint" />
            <mxPoint x="220" y="53" as="targetPoint" />
          </mxGeometry>
        </mxCell>
        <mxCell id="0aPcPJzKvKqHbsKZW9t1-26" value="reset" style="text;html=1;align=right;verticalAlign=bottom;whiteSpace=wrap;rounded=0;fontFamily=Lucida Console;spacingRight=12;" parent="1" vertex="1">
          <mxGeometry x="397" y="421" width="80" height="20" as="geometry" />
        </mxCell>
        <mxCell id="0aPcPJzKvKqHbsKZW9t1-27" value="" style="endArrow=none;html=1;rounded=0;exitX=0;exitY=0;exitDx=0;exitDy=0;" parent="1" source="0aPcPJzKvKqHbsKZW9t1-28" edge="1">
          <mxGeometry width="50" height="50" relative="1" as="geometry">
            <mxPoint x="357" y="441" as="sourcePoint" />
            <mxPoint x="477" y="441" as="targetPoint" />
          </mxGeometry>
        </mxCell>
        <mxCell id="0aPcPJzKvKqHbsKZW9t1-28" value="clock" style="text;html=1;align=right;verticalAlign=bottom;whiteSpace=wrap;rounded=0;fontFamily=Lucida Console;spacingRight=12;" parent="1" vertex="1">
          <mxGeometry x="397" y="441" width="80" height="20" as="geometry" />
        </mxCell>
        <mxCell id="0aPcPJzKvKqHbsKZW9t1-29" value="" style="endArrow=none;html=1;rounded=0;exitX=0;exitY=1;exitDx=0;exitDy=0;" parent="1" source="0aPcPJzKvKqHbsKZW9t1-28" edge="1">
          <mxGeometry width="50" height="50" relative="1" as="geometry">
            <mxPoint x="357" y="461.30999999999995" as="sourcePoint" />
            <mxPoint x="477" y="461.30999999999995" as="targetPoint" />
          </mxGeometry>
        </mxCell>
        <mxCell id="0aPcPJzKvKqHbsKZW9t1-30" value="currentState" style="text;html=1;align=center;verticalAlign=bottom;whiteSpace=wrap;rounded=0;fontFamily=Lucida Console;spacingRight=12;spacingLeft=12;" parent="1" vertex="1">
          <mxGeometry x="800" y="363.9999999999999" width="120" height="20" as="geometry" />
        </mxCell>
        <mxCell id="0aPcPJzKvKqHbsKZW9t1-31" value="" style="endArrow=none;html=1;rounded=0;strokeWidth=3;exitX=1.009;exitY=0.862;exitDx=0;exitDy=0;exitPerimeter=0;" parent="1" edge="1">
          <mxGeometry width="50" height="50" relative="1" as="geometry">
            <mxPoint x="638.4399999999998" y="350.4" as="sourcePoint" />
            <mxPoint x="925" y="348.9999999999999" as="targetPoint" />
          </mxGeometry>
        </mxCell>
        <mxCell id="0aPcPJzKvKqHbsKZW9t1-34" value="" style="rounded=0;whiteSpace=wrap;html=1;" parent="1" vertex="1">
          <mxGeometry x="920" y="279" width="160" height="200" as="geometry" />
        </mxCell>
        <mxCell id="0aPcPJzKvKqHbsKZW9t1-35" value="SEQ_TRANS" style="text;html=1;align=left;verticalAlign=bottom;whiteSpace=wrap;rounded=0;fontFamily=Lucida Console;" parent="1" vertex="1">
          <mxGeometry x="920" y="261" width="160" height="20" as="geometry" />
        </mxCell>
        <mxCell id="0aPcPJzKvKqHbsKZW9t1-36" value="nextState" style="text;html=1;align=center;verticalAlign=bottom;whiteSpace=wrap;rounded=0;fontFamily=Lucida Console;spacingRight=12;spacingLeft=12;" parent="1" vertex="1">
          <mxGeometry x="805" y="519.9999999999999" width="120" height="20" as="geometry" />
        </mxCell>
        <mxCell id="0aPcPJzKvKqHbsKZW9t1-37" value="" style="endArrow=none;html=1;rounded=0;strokeWidth=3;edgeStyle=elbowEdgeStyle;elbow=vertical;" parent="1" edge="1">
          <mxGeometry width="50" height="50" relative="1" as="geometry">
            <mxPoint x="370" y="380" as="sourcePoint" />
            <mxPoint x="1160" y="440" as="targetPoint" />
            <Array as="points">
              <mxPoint x="870" y="540" />
            </Array>
          </mxGeometry>
        </mxCell>
        <mxCell id="0aPcPJzKvKqHbsKZW9t1-40" value="" style="endArrow=none;html=1;rounded=0;strokeWidth=3;" parent="1" edge="1">
          <mxGeometry width="50" height="50" relative="1" as="geometry">
            <mxPoint x="370" y="380" as="sourcePoint" />
            <mxPoint x="477" y="380" as="targetPoint" />
          </mxGeometry>
        </mxCell>
        <mxCell id="0aPcPJzKvKqHbsKZW9t1-41" value="" style="endArrow=none;html=1;rounded=0;strokeWidth=3;" parent="1" edge="1">
          <mxGeometry width="50" height="50" relative="1" as="geometry">
            <mxPoint x="1080" y="440.33000000000004" as="sourcePoint" />
            <mxPoint x="1160" y="440.67" as="targetPoint" />
          </mxGeometry>
        </mxCell>
        <mxCell id="0aPcPJzKvKqHbsKZW9t1-42" value="showSeqMode" style="text;html=1;align=left;verticalAlign=bottom;whiteSpace=wrap;rounded=0;fontFamily=Lucida Console;spacingRight=0;spacingLeft=12;" parent="1" vertex="1">
          <mxGeometry x="1080" y="320" width="120" height="20" as="geometry" />
        </mxCell>
        <mxCell id="0aPcPJzKvKqHbsKZW9t1-43" value="" style="endArrow=none;html=1;rounded=0;entryX=-0.007;entryY=0.557;entryDx=0;entryDy=0;entryPerimeter=0;edgeStyle=elbowEdgeStyle;" parent="1" target="0aPcPJzKvKqHbsKZW9t1-165" edge="1">
          <mxGeometry width="50" height="50" relative="1" as="geometry">
            <mxPoint x="1080" y="340" as="sourcePoint" />
            <mxPoint x="1200" y="340" as="targetPoint" />
            <Array as="points">
              <mxPoint x="1280" y="270" />
            </Array>
          </mxGeometry>
        </mxCell>
        <mxCell id="0aPcPJzKvKqHbsKZW9t1-44" value="loadSeqEn" style="text;html=1;align=left;verticalAlign=bottom;whiteSpace=wrap;rounded=0;fontFamily=Lucida Console;spacingRight=0;spacingLeft=12;" parent="1" vertex="1">
          <mxGeometry x="1080" y="368.67" width="120" height="20" as="geometry" />
        </mxCell>
        <mxCell id="0aPcPJzKvKqHbsKZW9t1-45" value="" style="endArrow=none;html=1;rounded=0;edgeStyle=elbowEdgeStyle;exitX=0;exitY=1;exitDx=0;exitDy=0;" parent="1" source="0aPcPJzKvKqHbsKZW9t1-44" edge="1">
          <mxGeometry width="50" height="50" relative="1" as="geometry">
            <mxPoint x="1060" y="388.67" as="sourcePoint" />
            <mxPoint x="1180" y="570" as="targetPoint" />
            <Array as="points">
              <mxPoint x="1180" y="620" />
            </Array>
          </mxGeometry>
        </mxCell>
        <mxCell id="0aPcPJzKvKqHbsKZW9t1-46" value="" style="endArrow=none;html=1;rounded=0;entryX=-0.009;entryY=0.152;entryDx=0;entryDy=0;edgeStyle=elbowEdgeStyle;startArrow=none;startFill=0;entryPerimeter=0;" parent="1" target="0aPcPJzKvKqHbsKZW9t1-34" edge="1">
          <mxGeometry width="50" height="50" relative="1" as="geometry">
            <mxPoint x="740" y="179" as="sourcePoint" />
            <mxPoint x="810" y="470" as="targetPoint" />
            <Array as="points">
              <mxPoint x="740" y="320" />
            </Array>
          </mxGeometry>
        </mxCell>
        <mxCell id="0aPcPJzKvKqHbsKZW9t1-48" value="" style="rounded=0;whiteSpace=wrap;html=1;" parent="1" vertex="1">
          <mxGeometry x="480" y="598" width="160" height="202" as="geometry" />
        </mxCell>
        <mxCell id="0aPcPJzKvKqHbsKZW9t1-49" value="MAKE_NEXT_TIMER" style="text;html=1;align=left;verticalAlign=bottom;whiteSpace=wrap;rounded=0;fontFamily=Lucida Console;" parent="1" vertex="1">
          <mxGeometry x="480" y="580" width="160" height="20" as="geometry" />
        </mxCell>
        <mxCell id="0aPcPJzKvKqHbsKZW9t1-50" value="" style="rounded=0;whiteSpace=wrap;html=1;" parent="1" vertex="1">
          <mxGeometry x="480" y="878" width="160" height="182" as="geometry" />
        </mxCell>
        <mxCell id="0aPcPJzKvKqHbsKZW9t1-51" value="MAKE_HIDE_TIMER" style="text;html=1;align=left;verticalAlign=bottom;whiteSpace=wrap;rounded=0;fontFamily=Lucida Console;" parent="1" vertex="1">
          <mxGeometry x="480" y="860" width="160" height="20" as="geometry" />
        </mxCell>
        <mxCell id="0aPcPJzKvKqHbsKZW9t1-52" value="reset" style="text;html=1;align=right;verticalAlign=bottom;whiteSpace=wrap;rounded=0;fontFamily=Lucida Console;spacingRight=12;" parent="1" vertex="1">
          <mxGeometry x="400" y="740" width="80" height="20" as="geometry" />
        </mxCell>
        <mxCell id="0aPcPJzKvKqHbsKZW9t1-53" value="" style="endArrow=none;html=1;rounded=0;exitX=0;exitY=0;exitDx=0;exitDy=0;" parent="1" source="0aPcPJzKvKqHbsKZW9t1-54" edge="1">
          <mxGeometry width="50" height="50" relative="1" as="geometry">
            <mxPoint x="360" y="760" as="sourcePoint" />
            <mxPoint x="480" y="760" as="targetPoint" />
          </mxGeometry>
        </mxCell>
        <mxCell id="0aPcPJzKvKqHbsKZW9t1-54" value="clock" style="text;html=1;align=right;verticalAlign=bottom;whiteSpace=wrap;rounded=0;fontFamily=Lucida Console;spacingRight=12;" parent="1" vertex="1">
          <mxGeometry x="400" y="760" width="80" height="20" as="geometry" />
        </mxCell>
        <mxCell id="0aPcPJzKvKqHbsKZW9t1-55" value="" style="endArrow=none;html=1;rounded=0;exitX=0;exitY=1;exitDx=0;exitDy=0;" parent="1" source="0aPcPJzKvKqHbsKZW9t1-54" edge="1">
          <mxGeometry width="50" height="50" relative="1" as="geometry">
            <mxPoint x="360" y="780.31" as="sourcePoint" />
            <mxPoint x="480" y="780.31" as="targetPoint" />
          </mxGeometry>
        </mxCell>
        <mxCell id="0aPcPJzKvKqHbsKZW9t1-56" value="reset" style="text;html=1;align=right;verticalAlign=bottom;whiteSpace=wrap;rounded=0;fontFamily=Lucida Console;spacingRight=12;" parent="1" vertex="1">
          <mxGeometry x="400" y="1000" width="80" height="20" as="geometry" />
        </mxCell>
        <mxCell id="0aPcPJzKvKqHbsKZW9t1-57" value="" style="endArrow=none;html=1;rounded=0;exitX=0;exitY=0;exitDx=0;exitDy=0;" parent="1" source="0aPcPJzKvKqHbsKZW9t1-58" edge="1">
          <mxGeometry width="50" height="50" relative="1" as="geometry">
            <mxPoint x="360" y="1020" as="sourcePoint" />
            <mxPoint x="480" y="1020" as="targetPoint" />
          </mxGeometry>
        </mxCell>
        <mxCell id="0aPcPJzKvKqHbsKZW9t1-58" value="clock" style="text;html=1;align=right;verticalAlign=bottom;whiteSpace=wrap;rounded=0;fontFamily=Lucida Console;spacingRight=12;" parent="1" vertex="1">
          <mxGeometry x="400" y="1020" width="80" height="20" as="geometry" />
        </mxCell>
        <mxCell id="0aPcPJzKvKqHbsKZW9t1-59" value="" style="endArrow=none;html=1;rounded=0;exitX=0;exitY=1;exitDx=0;exitDy=0;" parent="1" source="0aPcPJzKvKqHbsKZW9t1-58" edge="1">
          <mxGeometry width="50" height="50" relative="1" as="geometry">
            <mxPoint x="360" y="1040.31" as="sourcePoint" />
            <mxPoint x="480" y="1040.31" as="targetPoint" />
          </mxGeometry>
        </mxCell>
        <mxCell id="0aPcPJzKvKqHbsKZW9t1-61" value="nextEn" style="text;html=1;align=left;verticalAlign=bottom;whiteSpace=wrap;rounded=0;fontFamily=Lucida Console;spacingRight=0;spacingLeft=12;" parent="1" vertex="1">
          <mxGeometry x="637" y="678.75" width="120" height="20" as="geometry" />
        </mxCell>
        <mxCell id="0aPcPJzKvKqHbsKZW9t1-62" value="" style="endArrow=none;html=1;rounded=0;edgeStyle=elbowEdgeStyle;" parent="1" edge="1">
          <mxGeometry width="50" height="50" relative="1" as="geometry">
            <mxPoint x="640" y="700" as="sourcePoint" />
            <mxPoint x="920" y="384" as="targetPoint" />
            <Array as="points">
              <mxPoint x="740" y="530" />
            </Array>
          </mxGeometry>
        </mxCell>
        <mxCell id="0aPcPJzKvKqHbsKZW9t1-63" value="" style="endArrow=oval;html=1;rounded=0;edgeStyle=elbowEdgeStyle;elbow=vertical;endFill=1;exitX=0.25;exitY=1;exitDx=0;exitDy=0;" parent="1" source="0aPcPJzKvKqHbsKZW9t1-64" edge="1">
          <mxGeometry width="50" height="50" relative="1" as="geometry">
            <mxPoint x="220" y="979" as="sourcePoint" />
            <mxPoint x="740" y="700" as="targetPoint" />
            <Array as="points">
              <mxPoint x="430" y="820" />
            </Array>
          </mxGeometry>
        </mxCell>
        <mxCell id="0aPcPJzKvKqHbsKZW9t1-64" value="nextEn" style="text;html=1;align=right;verticalAlign=bottom;whiteSpace=wrap;rounded=0;fontFamily=Lucida Console;spacingRight=12;" parent="1" vertex="1">
          <mxGeometry x="360" y="880" width="120" height="20" as="geometry" />
        </mxCell>
        <mxCell id="0aPcPJzKvKqHbsKZW9t1-65" value="" style="endArrow=none;html=1;rounded=0;exitX=0.25;exitY=1;exitDx=0;exitDy=0;" parent="1" source="0aPcPJzKvKqHbsKZW9t1-64" edge="1">
          <mxGeometry width="50" height="50" relative="1" as="geometry">
            <mxPoint x="400" y="900" as="sourcePoint" />
            <mxPoint x="481" y="900" as="targetPoint" />
          </mxGeometry>
        </mxCell>
        <mxCell id="0aPcPJzKvKqHbsKZW9t1-67" value="loadSeqEn" style="text;html=1;align=right;verticalAlign=bottom;whiteSpace=wrap;rounded=0;fontFamily=Lucida Console;spacingRight=12;" parent="1" vertex="1">
          <mxGeometry x="360" y="948" width="120" height="20" as="geometry" />
        </mxCell>
        <mxCell id="0aPcPJzKvKqHbsKZW9t1-68" value="" style="endArrow=none;html=1;rounded=0;edgeStyle=elbowEdgeStyle;" parent="1" edge="1">
          <mxGeometry width="50" height="50" relative="1" as="geometry">
            <mxPoint x="1180" y="570" as="sourcePoint" />
            <mxPoint x="480" y="968" as="targetPoint" />
            <Array as="points">
              <mxPoint x="370" y="790" />
            </Array>
          </mxGeometry>
        </mxCell>
        <mxCell id="0aPcPJzKvKqHbsKZW9t1-69" value="loadSeqEn" style="text;html=1;align=right;verticalAlign=bottom;whiteSpace=wrap;rounded=0;fontFamily=Lucida Console;spacingRight=12;" parent="1" vertex="1">
          <mxGeometry x="360" y="658.75" width="120" height="20" as="geometry" />
        </mxCell>
        <mxCell id="0aPcPJzKvKqHbsKZW9t1-70" value="" style="endArrow=none;html=1;rounded=0;startArrow=oval;startFill=1;" parent="1" edge="1">
          <mxGeometry width="50" height="50" relative="1" as="geometry">
            <mxPoint x="370" y="680" as="sourcePoint" />
            <mxPoint x="480" y="678.75" as="targetPoint" />
          </mxGeometry>
        </mxCell>
        <mxCell id="0aPcPJzKvKqHbsKZW9t1-71" value="hideEn" style="text;html=1;align=left;verticalAlign=bottom;whiteSpace=wrap;rounded=0;fontFamily=Lucida Console;spacingRight=0;spacingLeft=12;" parent="1" vertex="1">
          <mxGeometry x="640" y="957.52" width="120" height="20" as="geometry" />
        </mxCell>
        <mxCell id="0aPcPJzKvKqHbsKZW9t1-72" value="" style="endArrow=none;html=1;rounded=0;edgeStyle=elbowEdgeStyle;entryX=0;entryY=0.68;entryDx=0;entryDy=0;entryPerimeter=0;" parent="1" target="0aPcPJzKvKqHbsKZW9t1-34" edge="1">
          <mxGeometry width="50" height="50" relative="1" as="geometry">
            <mxPoint x="640" y="977.52" as="sourcePoint" />
            <mxPoint x="918" y="420" as="targetPoint" />
            <Array as="points">
              <mxPoint x="760" y="690" />
            </Array>
          </mxGeometry>
        </mxCell>
        <mxCell id="0aPcPJzKvKqHbsKZW9t1-75" value="" style="rounded=0;whiteSpace=wrap;html=1;" parent="1" vertex="1">
          <mxGeometry x="1320" y="288" width="160" height="372" as="geometry" />
        </mxCell>
        <mxCell id="0aPcPJzKvKqHbsKZW9t1-76" value="UUT" style="text;html=1;align=left;verticalAlign=bottom;whiteSpace=wrap;rounded=0;fontFamily=Lucida Console;" parent="1" vertex="1">
          <mxGeometry x="1320" y="270" width="160" height="20" as="geometry" />
        </mxCell>
        <mxCell id="0aPcPJzKvKqHbsKZW9t1-77" value="SequenceGenerator" style="text;html=1;align=center;verticalAlign=bottom;whiteSpace=wrap;rounded=0;fontFamily=Lucida Console;fontStyle=0" parent="1" vertex="1">
          <mxGeometry x="1320" y="640" width="160" height="20" as="geometry" />
        </mxCell>
        <mxCell id="0aPcPJzKvKqHbsKZW9t1-78" value="nextEn" style="text;html=1;align=left;verticalAlign=bottom;whiteSpace=wrap;rounded=0;fontFamily=Lucida Console;fontStyle=0" parent="1" vertex="1">
          <mxGeometry x="1327" y="378" width="70" height="20" as="geometry" />
        </mxCell>
        <mxCell id="0aPcPJzKvKqHbsKZW9t1-79" value="random1" style="text;html=1;align=right;verticalAlign=bottom;whiteSpace=wrap;rounded=0;fontFamily=Lucida Console;spacingRight=12;" parent="1" vertex="1">
          <mxGeometry x="1400" y="309" width="80" height="20" as="geometry" />
        </mxCell>
        <mxCell id="0aPcPJzKvKqHbsKZW9t1-80" value="random2" style="text;html=1;align=right;verticalAlign=bottom;whiteSpace=wrap;rounded=0;fontFamily=Lucida Console;spacingRight=12;" parent="1" vertex="1">
          <mxGeometry x="1400" y="387.67" width="80" height="20" as="geometry" />
        </mxCell>
        <mxCell id="0aPcPJzKvKqHbsKZW9t1-81" value="random3" style="text;html=1;align=right;verticalAlign=bottom;whiteSpace=wrap;rounded=0;fontFamily=Lucida Console;spacingRight=12;" parent="1" vertex="1">
          <mxGeometry x="1400" y="461" width="80" height="20" as="geometry" />
        </mxCell>
        <mxCell id="0aPcPJzKvKqHbsKZW9t1-82" value="random4" style="text;html=1;align=right;verticalAlign=bottom;whiteSpace=wrap;rounded=0;fontFamily=Lucida Console;spacingRight=12;" parent="1" vertex="1">
          <mxGeometry x="1400" y="533" width="80" height="20" as="geometry" />
        </mxCell>
        <mxCell id="0aPcPJzKvKqHbsKZW9t1-83" value="random5" style="text;html=1;align=right;verticalAlign=bottom;whiteSpace=wrap;rounded=0;fontFamily=Lucida Console;spacingRight=12;" parent="1" vertex="1">
          <mxGeometry x="1400" y="610" width="80" height="20" as="geometry" />
        </mxCell>
        <mxCell id="0aPcPJzKvKqHbsKZW9t1-85" value="" style="endArrow=none;html=1;rounded=0;startArrow=oval;startFill=1;" parent="1" edge="1">
          <mxGeometry width="50" height="50" relative="1" as="geometry">
            <mxPoint x="1180" y="389" as="sourcePoint" />
            <mxPoint x="1320" y="388.67" as="targetPoint" />
          </mxGeometry>
        </mxCell>
        <mxCell id="0aPcPJzKvKqHbsKZW9t1-86" value="seqTerm1" style="text;html=1;align=center;verticalAlign=bottom;whiteSpace=wrap;rounded=0;fontFamily=Lucida Console;spacingRight=12;spacingLeft=12;" parent="1" vertex="1">
          <mxGeometry x="1480" y="281.9999999999999" width="120" height="20" as="geometry" />
        </mxCell>
        <mxCell id="0aPcPJzKvKqHbsKZW9t1-87" value="" style="endArrow=none;html=1;rounded=0;strokeWidth=3;" parent="1" edge="1">
          <mxGeometry width="50" height="50" relative="1" as="geometry">
            <mxPoint x="1480" y="319.9999999999999" as="sourcePoint" />
            <mxPoint x="1600" y="319.9999999999999" as="targetPoint" />
          </mxGeometry>
        </mxCell>
        <mxCell id="0aPcPJzKvKqHbsKZW9t1-88" value="4" style="text;html=1;align=center;verticalAlign=bottom;whiteSpace=wrap;rounded=0;fontFamily=Lucida Console;fontStyle=0" parent="1" vertex="1">
          <mxGeometry x="1509.5" y="335.9999999999999" width="61" height="20" as="geometry" />
        </mxCell>
        <mxCell id="0aPcPJzKvKqHbsKZW9t1-89" value="" style="endArrow=none;html=1;rounded=0;strokeWidth=1;fontStyle=0" parent="1" edge="1">
          <mxGeometry width="50" height="50" relative="1" as="geometry">
            <mxPoint x="1535.5" y="330.9999999999999" as="sourcePoint" />
            <mxPoint x="1544.5" y="308.9999999999999" as="targetPoint" />
          </mxGeometry>
        </mxCell>
        <mxCell id="0aPcPJzKvKqHbsKZW9t1-90" value="seqTerm2" style="text;html=1;align=center;verticalAlign=bottom;whiteSpace=wrap;rounded=0;fontFamily=Lucida Console;spacingRight=12;spacingLeft=12;" parent="1" vertex="1">
          <mxGeometry x="1480" y="358.9999999999999" width="120" height="20" as="geometry" />
        </mxCell>
        <mxCell id="0aPcPJzKvKqHbsKZW9t1-91" value="" style="endArrow=none;html=1;rounded=0;strokeWidth=3;" parent="1" edge="1">
          <mxGeometry width="50" height="50" relative="1" as="geometry">
            <mxPoint x="1480" y="396.9999999999999" as="sourcePoint" />
            <mxPoint x="1600" y="396.9999999999999" as="targetPoint" />
          </mxGeometry>
        </mxCell>
        <mxCell id="0aPcPJzKvKqHbsKZW9t1-92" value="4" style="text;html=1;align=center;verticalAlign=bottom;whiteSpace=wrap;rounded=0;fontFamily=Lucida Console;fontStyle=0" parent="1" vertex="1">
          <mxGeometry x="1509.5" y="412.9999999999999" width="61" height="20" as="geometry" />
        </mxCell>
        <mxCell id="0aPcPJzKvKqHbsKZW9t1-93" value="" style="endArrow=none;html=1;rounded=0;strokeWidth=1;fontStyle=0" parent="1" edge="1">
          <mxGeometry width="50" height="50" relative="1" as="geometry">
            <mxPoint x="1535.5" y="407.9999999999999" as="sourcePoint" />
            <mxPoint x="1544.5" y="385.9999999999999" as="targetPoint" />
          </mxGeometry>
        </mxCell>
        <mxCell id="0aPcPJzKvKqHbsKZW9t1-94" value="seqTerm3" style="text;html=1;align=center;verticalAlign=bottom;whiteSpace=wrap;rounded=0;fontFamily=Lucida Console;spacingRight=12;spacingLeft=12;" parent="1" vertex="1">
          <mxGeometry x="1480" y="432.9999999999999" width="120" height="20" as="geometry" />
        </mxCell>
        <mxCell id="0aPcPJzKvKqHbsKZW9t1-95" value="" style="endArrow=none;html=1;rounded=0;strokeWidth=3;" parent="1" edge="1">
          <mxGeometry width="50" height="50" relative="1" as="geometry">
            <mxPoint x="1480" y="470.9999999999999" as="sourcePoint" />
            <mxPoint x="1600" y="470.9999999999999" as="targetPoint" />
          </mxGeometry>
        </mxCell>
        <mxCell id="0aPcPJzKvKqHbsKZW9t1-96" value="4" style="text;html=1;align=center;verticalAlign=bottom;whiteSpace=wrap;rounded=0;fontFamily=Lucida Console;fontStyle=0" parent="1" vertex="1">
          <mxGeometry x="1509.5" y="486.9999999999999" width="61" height="20" as="geometry" />
        </mxCell>
        <mxCell id="0aPcPJzKvKqHbsKZW9t1-97" value="" style="endArrow=none;html=1;rounded=0;strokeWidth=1;fontStyle=0" parent="1" edge="1">
          <mxGeometry width="50" height="50" relative="1" as="geometry">
            <mxPoint x="1535.5" y="481.9999999999999" as="sourcePoint" />
            <mxPoint x="1544.5" y="459.9999999999999" as="targetPoint" />
          </mxGeometry>
        </mxCell>
        <mxCell id="0aPcPJzKvKqHbsKZW9t1-98" value="seqTerm4" style="text;html=1;align=center;verticalAlign=bottom;whiteSpace=wrap;rounded=0;fontFamily=Lucida Console;spacingRight=12;spacingLeft=12;" parent="1" vertex="1">
          <mxGeometry x="1480" y="505.9999999999999" width="120" height="20" as="geometry" />
        </mxCell>
        <mxCell id="0aPcPJzKvKqHbsKZW9t1-99" value="" style="endArrow=none;html=1;rounded=0;strokeWidth=3;" parent="1" edge="1">
          <mxGeometry width="50" height="50" relative="1" as="geometry">
            <mxPoint x="1480" y="543.9999999999999" as="sourcePoint" />
            <mxPoint x="1600" y="543.9999999999999" as="targetPoint" />
          </mxGeometry>
        </mxCell>
        <mxCell id="0aPcPJzKvKqHbsKZW9t1-100" value="4" style="text;html=1;align=center;verticalAlign=bottom;whiteSpace=wrap;rounded=0;fontFamily=Lucida Console;fontStyle=0" parent="1" vertex="1">
          <mxGeometry x="1509.5" y="559.9999999999999" width="61" height="20" as="geometry" />
        </mxCell>
        <mxCell id="0aPcPJzKvKqHbsKZW9t1-101" value="" style="endArrow=none;html=1;rounded=0;strokeWidth=1;fontStyle=0" parent="1" edge="1">
          <mxGeometry width="50" height="50" relative="1" as="geometry">
            <mxPoint x="1535.5" y="554.9999999999999" as="sourcePoint" />
            <mxPoint x="1544.5" y="532.9999999999999" as="targetPoint" />
          </mxGeometry>
        </mxCell>
        <mxCell id="0aPcPJzKvKqHbsKZW9t1-102" value="seqTerm5" style="text;html=1;align=center;verticalAlign=bottom;whiteSpace=wrap;rounded=0;fontFamily=Lucida Console;spacingRight=12;spacingLeft=12;" parent="1" vertex="1">
          <mxGeometry x="1480" y="579.9999999999999" width="120" height="20" as="geometry" />
        </mxCell>
        <mxCell id="0aPcPJzKvKqHbsKZW9t1-103" value="" style="endArrow=none;html=1;rounded=0;strokeWidth=3;" parent="1" edge="1">
          <mxGeometry width="50" height="50" relative="1" as="geometry">
            <mxPoint x="1480" y="617.9999999999999" as="sourcePoint" />
            <mxPoint x="1600" y="617.9999999999999" as="targetPoint" />
          </mxGeometry>
        </mxCell>
        <mxCell id="0aPcPJzKvKqHbsKZW9t1-104" value="4" style="text;html=1;align=center;verticalAlign=bottom;whiteSpace=wrap;rounded=0;fontFamily=Lucida Console;fontStyle=0" parent="1" vertex="1">
          <mxGeometry x="1509.5" y="633.9999999999999" width="61" height="20" as="geometry" />
        </mxCell>
        <mxCell id="0aPcPJzKvKqHbsKZW9t1-105" value="" style="endArrow=none;html=1;rounded=0;strokeWidth=1;fontStyle=0" parent="1" edge="1">
          <mxGeometry width="50" height="50" relative="1" as="geometry">
            <mxPoint x="1535.5" y="628.9999999999999" as="sourcePoint" />
            <mxPoint x="1544.5" y="606.9999999999999" as="targetPoint" />
          </mxGeometry>
        </mxCell>
        <mxCell id="0aPcPJzKvKqHbsKZW9t1-107" value="nextEn" style="text;html=1;align=right;verticalAlign=bottom;whiteSpace=wrap;rounded=0;fontFamily=Lucida Console;spacingRight=12;" parent="1" vertex="1">
          <mxGeometry x="800" y="329" width="120" height="20" as="geometry" />
        </mxCell>
        <mxCell id="0aPcPJzKvKqHbsKZW9t1-109" value="" style="rounded=0;whiteSpace=wrap;html=1;" parent="1" vertex="1">
          <mxGeometry x="1280" y="748" width="160" height="200" as="geometry" />
        </mxCell>
        <mxCell id="0aPcPJzKvKqHbsKZW9t1-110" value="SELECT_TERM" style="text;html=1;align=left;verticalAlign=bottom;whiteSpace=wrap;rounded=0;fontFamily=Lucida Console;" parent="1" vertex="1">
          <mxGeometry x="1280" y="730" width="160" height="20" as="geometry" />
        </mxCell>
        <mxCell id="0aPcPJzKvKqHbsKZW9t1-111" value="nextEn" style="text;html=1;align=right;verticalAlign=bottom;whiteSpace=wrap;rounded=0;fontFamily=Lucida Console;spacingRight=12;" parent="1" vertex="1">
          <mxGeometry x="1160" y="800" width="120" height="20" as="geometry" />
        </mxCell>
        <mxCell id="0aPcPJzKvKqHbsKZW9t1-112" value="" style="endArrow=none;html=1;rounded=0;edgeStyle=orthogonalEdgeStyle;startArrow=oval;startFill=1;entryX=1;entryY=1;entryDx=0;entryDy=0;" parent="1" target="0aPcPJzKvKqHbsKZW9t1-111" edge="1">
          <mxGeometry width="50" height="50" relative="1" as="geometry">
            <mxPoint x="740" y="820" as="sourcePoint" />
            <mxPoint x="830" y="920" as="targetPoint" />
            <Array as="points">
              <mxPoint x="1010" y="820" />
              <mxPoint x="1010" y="820" />
            </Array>
          </mxGeometry>
        </mxCell>
        <mxCell id="0aPcPJzKvKqHbsKZW9t1-113" value="reset" style="text;html=1;align=right;verticalAlign=bottom;whiteSpace=wrap;rounded=0;fontFamily=Lucida Console;spacingRight=12;" parent="1" vertex="1">
          <mxGeometry x="120" y="190" width="80" height="20" as="geometry" />
        </mxCell>
        <mxCell id="0aPcPJzKvKqHbsKZW9t1-114" value="" style="endArrow=none;html=1;rounded=0;exitX=0;exitY=0;exitDx=0;exitDy=0;" parent="1" source="0aPcPJzKvKqHbsKZW9t1-115" edge="1">
          <mxGeometry width="50" height="50" relative="1" as="geometry">
            <mxPoint x="80" y="210" as="sourcePoint" />
            <mxPoint x="200" y="210" as="targetPoint" />
          </mxGeometry>
        </mxCell>
        <mxCell id="0aPcPJzKvKqHbsKZW9t1-115" value="clock" style="text;html=1;align=right;verticalAlign=bottom;whiteSpace=wrap;rounded=0;fontFamily=Lucida Console;spacingRight=12;" parent="1" vertex="1">
          <mxGeometry x="120" y="210" width="80" height="20" as="geometry" />
        </mxCell>
        <mxCell id="0aPcPJzKvKqHbsKZW9t1-116" value="" style="endArrow=none;html=1;rounded=0;exitX=0;exitY=1;exitDx=0;exitDy=0;" parent="1" source="0aPcPJzKvKqHbsKZW9t1-115" edge="1">
          <mxGeometry width="50" height="50" relative="1" as="geometry">
            <mxPoint x="80" y="230.30999999999995" as="sourcePoint" />
            <mxPoint x="200" y="230.30999999999995" as="targetPoint" />
          </mxGeometry>
        </mxCell>
        <mxCell id="0aPcPJzKvKqHbsKZW9t1-117" value="reset" style="text;html=1;align=right;verticalAlign=bottom;whiteSpace=wrap;rounded=0;fontFamily=Lucida Console;spacingRight=12;" parent="1" vertex="1">
          <mxGeometry x="400" y="190" width="80" height="20" as="geometry" />
        </mxCell>
        <mxCell id="0aPcPJzKvKqHbsKZW9t1-118" value="" style="endArrow=none;html=1;rounded=0;exitX=0;exitY=0;exitDx=0;exitDy=0;" parent="1" source="0aPcPJzKvKqHbsKZW9t1-119" edge="1">
          <mxGeometry width="50" height="50" relative="1" as="geometry">
            <mxPoint x="360" y="210" as="sourcePoint" />
            <mxPoint x="480" y="210" as="targetPoint" />
          </mxGeometry>
        </mxCell>
        <mxCell id="0aPcPJzKvKqHbsKZW9t1-119" value="clock" style="text;html=1;align=right;verticalAlign=bottom;whiteSpace=wrap;rounded=0;fontFamily=Lucida Console;spacingRight=12;" parent="1" vertex="1">
          <mxGeometry x="400" y="210" width="80" height="20" as="geometry" />
        </mxCell>
        <mxCell id="0aPcPJzKvKqHbsKZW9t1-120" value="" style="endArrow=none;html=1;rounded=0;exitX=0;exitY=1;exitDx=0;exitDy=0;" parent="1" source="0aPcPJzKvKqHbsKZW9t1-119" edge="1">
          <mxGeometry width="50" height="50" relative="1" as="geometry">
            <mxPoint x="360" y="230.30999999999995" as="sourcePoint" />
            <mxPoint x="480" y="230.30999999999995" as="targetPoint" />
          </mxGeometry>
        </mxCell>
        <mxCell id="0aPcPJzKvKqHbsKZW9t1-121" value="reset" style="text;html=1;align=right;verticalAlign=bottom;whiteSpace=wrap;rounded=0;fontFamily=Lucida Console;spacingRight=12;" parent="1" vertex="1">
          <mxGeometry x="1240" y="569.41" width="80" height="20" as="geometry" />
        </mxCell>
        <mxCell id="0aPcPJzKvKqHbsKZW9t1-122" value="" style="endArrow=none;html=1;rounded=0;exitX=0;exitY=0;exitDx=0;exitDy=0;" parent="1" source="0aPcPJzKvKqHbsKZW9t1-123" edge="1">
          <mxGeometry width="50" height="50" relative="1" as="geometry">
            <mxPoint x="1200" y="589.41" as="sourcePoint" />
            <mxPoint x="1320" y="589.41" as="targetPoint" />
          </mxGeometry>
        </mxCell>
        <mxCell id="0aPcPJzKvKqHbsKZW9t1-123" value="clock" style="text;html=1;align=right;verticalAlign=bottom;whiteSpace=wrap;rounded=0;fontFamily=Lucida Console;spacingRight=12;" parent="1" vertex="1">
          <mxGeometry x="1240" y="589.41" width="80" height="20" as="geometry" />
        </mxCell>
        <mxCell id="0aPcPJzKvKqHbsKZW9t1-124" value="" style="endArrow=none;html=1;rounded=0;exitX=0;exitY=1;exitDx=0;exitDy=0;" parent="1" source="0aPcPJzKvKqHbsKZW9t1-123" edge="1">
          <mxGeometry width="50" height="50" relative="1" as="geometry">
            <mxPoint x="1200" y="609.7199999999999" as="sourcePoint" />
            <mxPoint x="1320" y="609.7199999999999" as="targetPoint" />
          </mxGeometry>
        </mxCell>
        <mxCell id="0aPcPJzKvKqHbsKZW9t1-125" value="reset" style="text;html=1;align=right;verticalAlign=bottom;whiteSpace=wrap;rounded=0;fontFamily=Lucida Console;spacingRight=12;" parent="1" vertex="1">
          <mxGeometry x="1303" y="579.41" width="80" height="20" as="geometry" />
        </mxCell>
        <mxCell id="0aPcPJzKvKqHbsKZW9t1-126" value="clock" style="text;html=1;align=right;verticalAlign=bottom;whiteSpace=wrap;rounded=0;fontFamily=Lucida Console;spacingRight=12;" parent="1" vertex="1">
          <mxGeometry x="1303" y="599.41" width="80" height="20" as="geometry" />
        </mxCell>
        <mxCell id="0aPcPJzKvKqHbsKZW9t1-127" value="currentIndex" style="text;html=1;align=center;verticalAlign=bottom;whiteSpace=wrap;rounded=0;fontFamily=Lucida Console;spacingRight=12;spacingLeft=12;" parent="1" vertex="1">
          <mxGeometry x="1440" y="829.9999999999999" width="120" height="20" as="geometry" />
        </mxCell>
        <mxCell id="0aPcPJzKvKqHbsKZW9t1-128" value="" style="endArrow=none;html=1;rounded=0;strokeWidth=3;edgeStyle=elbowEdgeStyle;elbow=vertical;exitX=1;exitY=0.5;exitDx=0;exitDy=0;entryX=1;entryY=0.5;entryDx=0;entryDy=0;" parent="1" source="0aPcPJzKvKqHbsKZW9t1-109" target="0aPcPJzKvKqHbsKZW9t1-140" edge="1">
          <mxGeometry width="50" height="50" relative="1" as="geometry">
            <mxPoint x="1440" y="880" as="sourcePoint" />
            <mxPoint x="1628" y="670" as="targetPoint" />
            <Array as="points">
              <mxPoint x="1540" y="850" />
            </Array>
          </mxGeometry>
        </mxCell>
        <mxCell id="0aPcPJzKvKqHbsKZW9t1-137" value="loadSeqEn" style="text;html=1;align=right;verticalAlign=bottom;whiteSpace=wrap;rounded=0;fontFamily=Lucida Console;spacingRight=12;" parent="1" vertex="1">
          <mxGeometry x="1160" y="760" width="120" height="20" as="geometry" />
        </mxCell>
        <mxCell id="0aPcPJzKvKqHbsKZW9t1-138" value="" style="endArrow=none;html=1;rounded=0;edgeStyle=elbowEdgeStyle;startArrow=oval;startFill=1;" parent="1" edge="1">
          <mxGeometry width="50" height="50" relative="1" as="geometry">
            <mxPoint x="1180" y="570" as="sourcePoint" />
            <mxPoint x="1281" y="786" as="targetPoint" />
            <Array as="points">
              <mxPoint x="1180" y="720" />
            </Array>
          </mxGeometry>
        </mxCell>
        <mxCell id="0aPcPJzKvKqHbsKZW9t1-140" value="" style="shape=trapezoid;perimeter=trapezoidPerimeter;whiteSpace=wrap;html=1;fixedSize=1;rotation=90;" parent="1" vertex="1">
          <mxGeometry x="1449.46" y="441.06" width="356.86" height="54.75" as="geometry" />
        </mxCell>
        <mxCell id="0aPcPJzKvKqHbsKZW9t1-141" value="currentTerm" style="text;html=1;align=center;verticalAlign=bottom;whiteSpace=wrap;rounded=0;fontFamily=Lucida Console;spacingRight=12;spacingLeft=12;" parent="1" vertex="1">
          <mxGeometry x="1656" y="433.9999999999999" width="120" height="20" as="geometry" />
        </mxCell>
        <mxCell id="0aPcPJzKvKqHbsKZW9t1-142" value="" style="endArrow=oval;html=1;rounded=0;strokeWidth=3;endFill=1;" parent="1" edge="1">
          <mxGeometry width="50" height="50" relative="1" as="geometry">
            <mxPoint x="1656" y="471.9999999999999" as="sourcePoint" />
            <mxPoint x="1861" y="472" as="targetPoint" />
          </mxGeometry>
        </mxCell>
        <mxCell id="0aPcPJzKvKqHbsKZW9t1-143" value="4" style="text;html=1;align=center;verticalAlign=bottom;whiteSpace=wrap;rounded=0;fontFamily=Lucida Console;fontStyle=0" parent="1" vertex="1">
          <mxGeometry x="1685.5" y="487.9999999999999" width="61" height="20" as="geometry" />
        </mxCell>
        <mxCell id="0aPcPJzKvKqHbsKZW9t1-144" value="" style="endArrow=none;html=1;rounded=0;strokeWidth=1;fontStyle=0" parent="1" edge="1">
          <mxGeometry width="50" height="50" relative="1" as="geometry">
            <mxPoint x="1711.5" y="482.9999999999999" as="sourcePoint" />
            <mxPoint x="1720.5" y="460.9999999999999" as="targetPoint" />
          </mxGeometry>
        </mxCell>
        <mxCell id="0aPcPJzKvKqHbsKZW9t1-148" value="1" style="text;html=1;align=center;verticalAlign=bottom;whiteSpace=wrap;rounded=0;fontFamily=Lucida Console;fontStyle=0" parent="1" vertex="1">
          <mxGeometry x="1600" y="309" width="30" height="20" as="geometry" />
        </mxCell>
        <mxCell id="0aPcPJzKvKqHbsKZW9t1-149" value="2" style="text;html=1;align=center;verticalAlign=bottom;whiteSpace=wrap;rounded=0;fontFamily=Lucida Console;fontStyle=0" parent="1" vertex="1">
          <mxGeometry x="1600" y="387.67" width="30" height="20" as="geometry" />
        </mxCell>
        <mxCell id="0aPcPJzKvKqHbsKZW9t1-150" value="3" style="text;html=1;align=center;verticalAlign=bottom;whiteSpace=wrap;rounded=0;fontFamily=Lucida Console;fontStyle=0" parent="1" vertex="1">
          <mxGeometry x="1600" y="461" width="30" height="20" as="geometry" />
        </mxCell>
        <mxCell id="0aPcPJzKvKqHbsKZW9t1-151" value="4" style="text;html=1;align=center;verticalAlign=bottom;whiteSpace=wrap;rounded=0;fontFamily=Lucida Console;fontStyle=0" parent="1" vertex="1">
          <mxGeometry x="1600" y="533" width="30" height="20" as="geometry" />
        </mxCell>
        <mxCell id="0aPcPJzKvKqHbsKZW9t1-152" value="5" style="text;html=1;align=center;verticalAlign=bottom;whiteSpace=wrap;rounded=0;fontFamily=Lucida Console;fontStyle=0" parent="1" vertex="1">
          <mxGeometry x="1600" y="609.4100000000001" width="30" height="20" as="geometry" />
        </mxCell>
        <mxCell id="0aPcPJzKvKqHbsKZW9t1-153" value="" style="rounded=0;whiteSpace=wrap;html=1;" parent="1" vertex="1">
          <mxGeometry x="1760" y="770" width="160" height="140" as="geometry" />
        </mxCell>
        <mxCell id="0aPcPJzKvKqHbsKZW9t1-154" value="CHECK_LAST" style="text;html=1;align=left;verticalAlign=bottom;whiteSpace=wrap;rounded=0;fontFamily=Lucida Console;" parent="1" vertex="1">
          <mxGeometry x="1760" y="750" width="160" height="20" as="geometry" />
        </mxCell>
        <mxCell id="0aPcPJzKvKqHbsKZW9t1-155" value="" style="endArrow=none;html=1;rounded=0;strokeWidth=3;startArrow=oval;startFill=1;" parent="1" edge="1">
          <mxGeometry width="50" height="50" relative="1" as="geometry">
            <mxPoint x="1628" y="851" as="sourcePoint" />
            <mxPoint x="1759" y="851" as="targetPoint" />
          </mxGeometry>
        </mxCell>
        <mxCell id="0aPcPJzKvKqHbsKZW9t1-157" value="" style="endArrow=none;html=1;rounded=0;edgeStyle=elbowEdgeStyle;exitX=0;exitY=1;exitDx=0;exitDy=0;" parent="1" source="0aPcPJzKvKqHbsKZW9t1-160" edge="1">
          <mxGeometry width="50" height="50" relative="1" as="geometry">
            <mxPoint x="1920" y="860" as="sourcePoint" />
            <mxPoint x="780" y="980" as="targetPoint" />
            <Array as="points">
              <mxPoint x="2040" y="920" />
            </Array>
          </mxGeometry>
        </mxCell>
        <mxCell id="0aPcPJzKvKqHbsKZW9t1-158" value="" style="endArrow=none;html=1;rounded=0;entryX=1;entryY=1;entryDx=0;entryDy=0;edgeStyle=elbowEdgeStyle;elbow=vertical;" parent="1" target="0aPcPJzKvKqHbsKZW9t1-159" edge="1">
          <mxGeometry width="50" height="50" relative="1" as="geometry">
            <mxPoint x="780" y="980" as="sourcePoint" />
            <mxPoint x="850" y="710" as="targetPoint" />
            <Array as="points">
              <mxPoint x="860" y="450" />
            </Array>
          </mxGeometry>
        </mxCell>
        <mxCell id="0aPcPJzKvKqHbsKZW9t1-159" value="lastTermMode" style="text;html=1;align=right;verticalAlign=bottom;whiteSpace=wrap;rounded=0;fontFamily=Lucida Console;spacingRight=12;" parent="1" vertex="1">
          <mxGeometry x="800" y="430" width="120" height="20" as="geometry" />
        </mxCell>
        <mxCell id="0aPcPJzKvKqHbsKZW9t1-160" value="lastTermMode" style="text;html=1;align=center;verticalAlign=bottom;whiteSpace=wrap;rounded=0;fontFamily=Lucida Console;spacingRight=12;spacingLeft=12;" parent="1" vertex="1">
          <mxGeometry x="1920" y="829.9999999999999" width="120" height="20" as="geometry" />
        </mxCell>
        <mxCell id="0aPcPJzKvKqHbsKZW9t1-164" value="hideEn" style="text;html=1;align=right;verticalAlign=bottom;whiteSpace=wrap;rounded=0;fontFamily=Lucida Console;spacingRight=12;" parent="1" vertex="1">
          <mxGeometry x="800" y="395" width="120" height="20" as="geometry" />
        </mxCell>
        <mxCell id="0aPcPJzKvKqHbsKZW9t1-165" value="" style="rounded=0;whiteSpace=wrap;html=1;" parent="1" vertex="1">
          <mxGeometry x="1920" y="78" width="160" height="200" as="geometry" />
        </mxCell>
        <mxCell id="0aPcPJzKvKqHbsKZW9t1-166" value="DRIVE_LED" style="text;html=1;align=left;verticalAlign=bottom;whiteSpace=wrap;rounded=0;fontFamily=Lucida Console;" parent="1" vertex="1">
          <mxGeometry x="1920" y="60" width="160" height="20" as="geometry" />
        </mxCell>
        <mxCell id="0aPcPJzKvKqHbsKZW9t1-167" value="reset" style="text;html=1;align=right;verticalAlign=bottom;whiteSpace=wrap;rounded=0;fontFamily=Lucida Console;spacingRight=12;" parent="1" vertex="1">
          <mxGeometry x="1200" y="890" width="80" height="20" as="geometry" />
        </mxCell>
        <mxCell id="0aPcPJzKvKqHbsKZW9t1-168" value="" style="endArrow=none;html=1;rounded=0;exitX=0;exitY=0;exitDx=0;exitDy=0;" parent="1" source="0aPcPJzKvKqHbsKZW9t1-169" edge="1">
          <mxGeometry width="50" height="50" relative="1" as="geometry">
            <mxPoint x="1160" y="910" as="sourcePoint" />
            <mxPoint x="1280" y="910" as="targetPoint" />
          </mxGeometry>
        </mxCell>
        <mxCell id="0aPcPJzKvKqHbsKZW9t1-169" value="clock" style="text;html=1;align=right;verticalAlign=bottom;whiteSpace=wrap;rounded=0;fontFamily=Lucida Console;spacingRight=12;" parent="1" vertex="1">
          <mxGeometry x="1200" y="910" width="80" height="20" as="geometry" />
        </mxCell>
        <mxCell id="0aPcPJzKvKqHbsKZW9t1-170" value="" style="endArrow=none;html=1;rounded=0;exitX=0;exitY=1;exitDx=0;exitDy=0;" parent="1" source="0aPcPJzKvKqHbsKZW9t1-169" edge="1">
          <mxGeometry width="50" height="50" relative="1" as="geometry">
            <mxPoint x="1160" y="930.31" as="sourcePoint" />
            <mxPoint x="1280" y="930.31" as="targetPoint" />
          </mxGeometry>
        </mxCell>
        <mxCell id="0aPcPJzKvKqHbsKZW9t1-172" value="" style="endArrow=none;html=1;rounded=0;strokeWidth=3;" parent="1" edge="1">
          <mxGeometry width="50" height="50" relative="1" as="geometry">
            <mxPoint x="2080" y="180.4999999999999" as="sourcePoint" />
            <mxPoint x="2200" y="180.4999999999999" as="targetPoint" />
          </mxGeometry>
        </mxCell>
        <mxCell id="0aPcPJzKvKqHbsKZW9t1-173" value="16" style="text;html=1;align=center;verticalAlign=bottom;whiteSpace=wrap;rounded=0;fontFamily=Lucida Console;fontStyle=0" parent="1" vertex="1">
          <mxGeometry x="2109.5" y="196.4999999999999" width="61" height="20" as="geometry" />
        </mxCell>
        <mxCell id="0aPcPJzKvKqHbsKZW9t1-174" value="" style="endArrow=none;html=1;rounded=0;strokeWidth=1;fontStyle=0" parent="1" edge="1">
          <mxGeometry width="50" height="50" relative="1" as="geometry">
            <mxPoint x="2135.5" y="191.4999999999999" as="sourcePoint" />
            <mxPoint x="2144.5" y="169.4999999999999" as="targetPoint" />
          </mxGeometry>
        </mxCell>
        <mxCell id="0aPcPJzKvKqHbsKZW9t1-175" value="led" style="html=1;shadow=0;dashed=0;align=center;verticalAlign=middle;shape=mxgraph.arrows2.arrow;dy=0;dx=10;notch=0;fontFamily=Lucida Console;spacingRight=16;" parent="1" vertex="1">
          <mxGeometry x="2201" y="167.5" width="100" height="25" as="geometry" />
        </mxCell>
        <mxCell id="0aPcPJzKvKqHbsKZW9t1-176" value="" style="rounded=0;whiteSpace=wrap;html=1;" parent="1" vertex="1">
          <mxGeometry x="1919" y="331" width="160" height="122.56" as="geometry" />
        </mxCell>
        <mxCell id="0aPcPJzKvKqHbsKZW9t1-177" value="BCD_TENS" style="text;html=1;align=left;verticalAlign=bottom;whiteSpace=wrap;rounded=0;fontFamily=Lucida Console;" parent="1" vertex="1">
          <mxGeometry x="1919" y="313" width="160" height="20" as="geometry" />
        </mxCell>
        <mxCell id="0aPcPJzKvKqHbsKZW9t1-178" value="" style="rounded=0;whiteSpace=wrap;html=1;" parent="1" vertex="1">
          <mxGeometry x="1919" y="491" width="160" height="122.56" as="geometry" />
        </mxCell>
        <mxCell id="0aPcPJzKvKqHbsKZW9t1-179" value="BCD_ONES" style="text;html=1;align=left;verticalAlign=bottom;whiteSpace=wrap;rounded=0;fontFamily=Lucida Console;" parent="1" vertex="1">
          <mxGeometry x="1919" y="473" width="160" height="20" as="geometry" />
        </mxCell>
        <mxCell id="0aPcPJzKvKqHbsKZW9t1-180" value="" style="endArrow=none;html=1;rounded=0;entryX=0;entryY=0.5;entryDx=0;entryDy=0;exitX=0;exitY=0.5;exitDx=0;exitDy=0;edgeStyle=elbowEdgeStyle;strokeWidth=3;" parent="1" source="0aPcPJzKvKqHbsKZW9t1-178" target="0aPcPJzKvKqHbsKZW9t1-176" edge="1">
          <mxGeometry width="50" height="50" relative="1" as="geometry">
            <mxPoint x="1819" y="493" as="sourcePoint" />
            <mxPoint x="1869" y="443" as="targetPoint" />
            <Array as="points">
              <mxPoint x="1861" y="475" />
            </Array>
          </mxGeometry>
        </mxCell>
        <mxCell id="0aPcPJzKvKqHbsKZW9t1-184" value="segTens" style="text;html=1;align=center;verticalAlign=bottom;whiteSpace=wrap;rounded=0;fontFamily=Lucida Console;spacingRight=12;spacingLeft=12;" parent="1" vertex="1">
          <mxGeometry x="2079" y="355.9999999999999" width="120" height="20" as="geometry" />
        </mxCell>
        <mxCell id="0aPcPJzKvKqHbsKZW9t1-185" value="" style="endArrow=none;html=1;rounded=0;strokeWidth=3;entryX=0;entryY=0.5;entryDx=0;entryDy=0;edgeStyle=elbowEdgeStyle;" parent="1" target="0aPcPJzKvKqHbsKZW9t1-213" edge="1">
          <mxGeometry width="50" height="50" relative="1" as="geometry">
            <mxPoint x="2079" y="393.9999999999999" as="sourcePoint" />
            <mxPoint x="2199" y="393.9999999999999" as="targetPoint" />
            <Array as="points">
              <mxPoint x="2185" y="380" />
            </Array>
          </mxGeometry>
        </mxCell>
        <mxCell id="0aPcPJzKvKqHbsKZW9t1-186" value="4" style="text;html=1;align=center;verticalAlign=bottom;whiteSpace=wrap;rounded=0;fontFamily=Lucida Console;fontStyle=0" parent="1" vertex="1">
          <mxGeometry x="2108.5" y="409.9999999999999" width="61" height="20" as="geometry" />
        </mxCell>
        <mxCell id="0aPcPJzKvKqHbsKZW9t1-187" value="" style="endArrow=none;html=1;rounded=0;strokeWidth=1;fontStyle=0" parent="1" edge="1">
          <mxGeometry width="50" height="50" relative="1" as="geometry">
            <mxPoint x="2134.5" y="404.9999999999999" as="sourcePoint" />
            <mxPoint x="2143.5" y="382.9999999999999" as="targetPoint" />
          </mxGeometry>
        </mxCell>
        <mxCell id="0aPcPJzKvKqHbsKZW9t1-188" value="segOnes" style="text;html=1;align=center;verticalAlign=bottom;whiteSpace=wrap;rounded=0;fontFamily=Lucida Console;spacingRight=12;spacingLeft=12;" parent="1" vertex="1">
          <mxGeometry x="2079" y="519.9999999999999" width="120" height="20" as="geometry" />
        </mxCell>
        <mxCell id="0aPcPJzKvKqHbsKZW9t1-189" value="" style="endArrow=none;html=1;rounded=0;strokeWidth=3;entryX=0;entryY=0.5;entryDx=0;entryDy=0;edgeStyle=elbowEdgeStyle;" parent="1" target="0aPcPJzKvKqHbsKZW9t1-214" edge="1">
          <mxGeometry width="50" height="50" relative="1" as="geometry">
            <mxPoint x="2079" y="557.9999999999999" as="sourcePoint" />
            <mxPoint x="2199" y="557.9999999999999" as="targetPoint" />
            <Array as="points">
              <mxPoint x="2205" y="480" />
            </Array>
          </mxGeometry>
        </mxCell>
        <mxCell id="0aPcPJzKvKqHbsKZW9t1-190" value="4" style="text;html=1;align=center;verticalAlign=bottom;whiteSpace=wrap;rounded=0;fontFamily=Lucida Console;fontStyle=0" parent="1" vertex="1">
          <mxGeometry x="2108.5" y="573.9999999999999" width="61" height="20" as="geometry" />
        </mxCell>
        <mxCell id="0aPcPJzKvKqHbsKZW9t1-191" value="" style="endArrow=none;html=1;rounded=0;strokeWidth=1;fontStyle=0" parent="1" edge="1">
          <mxGeometry width="50" height="50" relative="1" as="geometry">
            <mxPoint x="2134.5" y="568.9999999999999" as="sourcePoint" />
            <mxPoint x="2143.5" y="546.9999999999999" as="targetPoint" />
          </mxGeometry>
        </mxCell>
        <mxCell id="0aPcPJzKvKqHbsKZW9t1-192" value="" style="endArrow=none;html=1;rounded=0;edgeStyle=elbowEdgeStyle;strokeWidth=3;startArrow=oval;startFill=1;entryX=-0.004;entryY=0.211;entryDx=0;entryDy=0;entryPerimeter=0;" parent="1" target="0aPcPJzKvKqHbsKZW9t1-165" edge="1">
          <mxGeometry width="50" height="50" relative="1" as="geometry">
            <mxPoint x="1860" y="393" as="sourcePoint" />
            <mxPoint x="1915" y="120" as="targetPoint" />
            <Array as="points">
              <mxPoint x="1860" y="280" />
            </Array>
          </mxGeometry>
        </mxCell>
        <mxCell id="0aPcPJzKvKqHbsKZW9t1-195" value="" style="rounded=0;whiteSpace=wrap;html=1;" parent="1" vertex="1">
          <mxGeometry x="2700" y="310" width="160" height="372" as="geometry" />
        </mxCell>
        <mxCell id="0aPcPJzKvKqHbsKZW9t1-196" value="UUT" style="text;html=1;align=left;verticalAlign=bottom;whiteSpace=wrap;rounded=0;fontFamily=Lucida Console;" parent="1" vertex="1">
          <mxGeometry x="2700" y="292" width="160" height="20" as="geometry" />
        </mxCell>
        <mxCell id="0aPcPJzKvKqHbsKZW9t1-197" value="SequenceGenerator" style="text;html=1;align=center;verticalAlign=bottom;whiteSpace=wrap;rounded=0;fontFamily=Lucida Console;fontStyle=0" parent="1" vertex="1">
          <mxGeometry x="2700" y="662" width="160" height="20" as="geometry" />
        </mxCell>
        <mxCell id="0aPcPJzKvKqHbsKZW9t1-204" value="digit3" style="text;html=1;align=left;verticalAlign=bottom;whiteSpace=wrap;rounded=0;fontFamily=Lucida Console;spacingRight=0;spacingLeft=12;" parent="1" vertex="1">
          <mxGeometry x="2700" y="331" width="80" height="20" as="geometry" />
        </mxCell>
        <mxCell id="0aPcPJzKvKqHbsKZW9t1-206" value="digit2" style="text;html=1;align=left;verticalAlign=bottom;whiteSpace=wrap;rounded=0;fontFamily=Lucida Console;spacingRight=0;spacingLeft=12;" parent="1" vertex="1">
          <mxGeometry x="2700" y="358" width="80" height="20" as="geometry" />
        </mxCell>
        <mxCell id="0aPcPJzKvKqHbsKZW9t1-207" value="" style="endArrow=none;html=1;rounded=0;strokeWidth=3;" parent="1" edge="1">
          <mxGeometry width="50" height="50" relative="1" as="geometry">
            <mxPoint x="2660" y="368" as="sourcePoint" />
            <mxPoint x="2700" y="368" as="targetPoint" />
          </mxGeometry>
        </mxCell>
        <mxCell id="0aPcPJzKvKqHbsKZW9t1-208" value="" style="endArrow=none;html=1;rounded=0;strokeWidth=3;" parent="1" edge="1">
          <mxGeometry width="50" height="50" relative="1" as="geometry">
            <mxPoint x="2660" y="341" as="sourcePoint" />
            <mxPoint x="2700" y="341" as="targetPoint" />
          </mxGeometry>
        </mxCell>
        <mxCell id="0aPcPJzKvKqHbsKZW9t1-209" value="" style="endArrow=none;html=1;rounded=0;" parent="1" edge="1">
          <mxGeometry width="50" height="50" relative="1" as="geometry">
            <mxPoint x="2660" y="352" as="sourcePoint" />
            <mxPoint x="2660" y="332" as="targetPoint" />
          </mxGeometry>
        </mxCell>
        <mxCell id="0aPcPJzKvKqHbsKZW9t1-210" value="" style="endArrow=none;html=1;rounded=0;" parent="1" edge="1">
          <mxGeometry width="50" height="50" relative="1" as="geometry">
            <mxPoint x="2660" y="378" as="sourcePoint" />
            <mxPoint x="2660" y="358" as="targetPoint" />
          </mxGeometry>
        </mxCell>
        <mxCell id="0aPcPJzKvKqHbsKZW9t1-211" value="&quot;0000&quot;" style="text;html=1;align=right;verticalAlign=bottom;whiteSpace=wrap;rounded=0;fontFamily=Lucida Console;fontStyle=0;spacing=2;spacingRight=5;" parent="1" vertex="1">
          <mxGeometry x="2590" y="331" width="70" height="20" as="geometry" />
        </mxCell>
        <mxCell id="0aPcPJzKvKqHbsKZW9t1-212" value="&quot;0000&quot;" style="text;html=1;align=right;verticalAlign=bottom;whiteSpace=wrap;rounded=0;fontFamily=Lucida Console;fontStyle=0;spacing=2;spacingRight=5;" parent="1" vertex="1">
          <mxGeometry x="2590" y="358" width="70" height="20" as="geometry" />
        </mxCell>
        <mxCell id="0aPcPJzKvKqHbsKZW9t1-213" value="digit1" style="text;html=1;align=left;verticalAlign=bottom;whiteSpace=wrap;rounded=0;fontFamily=Lucida Console;spacingRight=0;spacingLeft=12;" parent="1" vertex="1">
          <mxGeometry x="2700" y="384.5" width="80" height="20" as="geometry" />
        </mxCell>
        <mxCell id="0aPcPJzKvKqHbsKZW9t1-214" value="digit0" style="text;html=1;align=left;verticalAlign=bottom;whiteSpace=wrap;rounded=0;fontFamily=Lucida Console;spacingRight=0;spacingLeft=12;" parent="1" vertex="1">
          <mxGeometry x="2700" y="411.5" width="80" height="20" as="geometry" />
        </mxCell>
        <mxCell id="0aPcPJzKvKqHbsKZW9t1-215" value="blank3" style="text;html=1;align=left;verticalAlign=bottom;whiteSpace=wrap;rounded=0;fontFamily=Lucida Console;spacingRight=0;spacingLeft=12;" parent="1" vertex="1">
          <mxGeometry x="2700" y="452" width="80" height="20.75" as="geometry" />
        </mxCell>
        <mxCell id="0aPcPJzKvKqHbsKZW9t1-216" value="blank2" style="text;html=1;align=left;verticalAlign=bottom;whiteSpace=wrap;rounded=0;fontFamily=Lucida Console;spacingRight=0;spacingLeft=12;" parent="1" vertex="1">
          <mxGeometry x="2700" y="479.75" width="80" height="20" as="geometry" />
        </mxCell>
        <mxCell id="0aPcPJzKvKqHbsKZW9t1-217" value="blank1" style="text;html=1;align=left;verticalAlign=bottom;whiteSpace=wrap;rounded=0;fontFamily=Lucida Console;spacingRight=0;spacingLeft=12;" parent="1" vertex="1">
          <mxGeometry x="2700" y="506.25" width="80" height="20" as="geometry" />
        </mxCell>
        <mxCell id="0aPcPJzKvKqHbsKZW9t1-218" value="blank0" style="text;html=1;align=left;verticalAlign=bottom;whiteSpace=wrap;rounded=0;fontFamily=Lucida Console;spacingRight=0;spacingLeft=12;" parent="1" vertex="1">
          <mxGeometry x="2700" y="533.25" width="80" height="20" as="geometry" />
        </mxCell>
        <mxCell id="0aPcPJzKvKqHbsKZW9t1-219" value="" style="endArrow=none;html=1;rounded=0;strokeWidth=1;" parent="1" edge="1">
          <mxGeometry width="50" height="50" relative="1" as="geometry">
            <mxPoint x="2660" y="462.75" as="sourcePoint" />
            <mxPoint x="2700" y="462.75" as="targetPoint" />
          </mxGeometry>
        </mxCell>
        <mxCell id="0aPcPJzKvKqHbsKZW9t1-220" value="" style="endArrow=none;html=1;rounded=0;" parent="1" edge="1">
          <mxGeometry width="50" height="50" relative="1" as="geometry">
            <mxPoint x="2660" y="472.75" as="sourcePoint" />
            <mxPoint x="2660" y="452.75" as="targetPoint" />
          </mxGeometry>
        </mxCell>
        <mxCell id="0aPcPJzKvKqHbsKZW9t1-221" value="&#39;1&#39;" style="text;html=1;align=right;verticalAlign=bottom;whiteSpace=wrap;rounded=0;fontFamily=Lucida Console;fontStyle=0;spacing=2;spacingRight=5;" parent="1" vertex="1">
          <mxGeometry x="2590" y="452.75" width="70" height="20" as="geometry" />
        </mxCell>
        <mxCell id="0aPcPJzKvKqHbsKZW9t1-222" value="" style="endArrow=none;html=1;rounded=0;strokeWidth=1;" parent="1" edge="1">
          <mxGeometry width="50" height="50" relative="1" as="geometry">
            <mxPoint x="2660" y="489.75" as="sourcePoint" />
            <mxPoint x="2700" y="489.75" as="targetPoint" />
          </mxGeometry>
        </mxCell>
        <mxCell id="0aPcPJzKvKqHbsKZW9t1-223" value="" style="endArrow=none;html=1;rounded=0;" parent="1" edge="1">
          <mxGeometry width="50" height="50" relative="1" as="geometry">
            <mxPoint x="2660" y="499.75" as="sourcePoint" />
            <mxPoint x="2660" y="479.75" as="targetPoint" />
          </mxGeometry>
        </mxCell>
        <mxCell id="0aPcPJzKvKqHbsKZW9t1-224" value="&#39;1&#39;" style="text;html=1;align=right;verticalAlign=bottom;whiteSpace=wrap;rounded=0;fontFamily=Lucida Console;fontStyle=0;spacing=2;spacingRight=5;" parent="1" vertex="1">
          <mxGeometry x="2590" y="479.75" width="70" height="20" as="geometry" />
        </mxCell>
        <mxCell id="0aPcPJzKvKqHbsKZW9t1-229" style="edgeStyle=orthogonalEdgeStyle;rounded=0;orthogonalLoop=1;jettySize=auto;html=1;exitX=0.003;exitY=0.334;exitDx=0;exitDy=0;exitPerimeter=0;endArrow=oval;startFill=0;strokeWidth=3;endFill=1;" parent="1" source="0aPcPJzKvKqHbsKZW9t1-227" edge="1">
          <mxGeometry relative="1" as="geometry">
            <mxPoint x="2205" y="558" as="targetPoint" />
          </mxGeometry>
        </mxCell>
        <mxCell id="0aPcPJzKvKqHbsKZW9t1-234" style="edgeStyle=orthogonalEdgeStyle;rounded=0;orthogonalLoop=1;jettySize=auto;html=1;exitX=1;exitY=0.5;exitDx=0;exitDy=0;entryX=0;entryY=0.5;entryDx=0;entryDy=0;endArrow=none;startFill=0;" parent="1" source="0aPcPJzKvKqHbsKZW9t1-227" target="0aPcPJzKvKqHbsKZW9t1-217" edge="1">
          <mxGeometry relative="1" as="geometry">
            <Array as="points">
              <mxPoint x="2590" y="659" />
              <mxPoint x="2590" y="516" />
            </Array>
          </mxGeometry>
        </mxCell>
        <mxCell id="0aPcPJzKvKqHbsKZW9t1-227" value="" style="rounded=0;whiteSpace=wrap;html=1;" parent="1" vertex="1">
          <mxGeometry x="2340" y="598" width="160" height="122.56" as="geometry" />
        </mxCell>
        <mxCell id="0aPcPJzKvKqHbsKZW9t1-228" value="CHECK_TENS" style="text;html=1;align=left;verticalAlign=bottom;whiteSpace=wrap;rounded=0;fontFamily=Lucida Console;" parent="1" vertex="1">
          <mxGeometry x="2340" y="580" width="160" height="20" as="geometry" />
        </mxCell>
        <mxCell id="0aPcPJzKvKqHbsKZW9t1-230" value="" style="endArrow=none;html=1;rounded=0;entryX=0.007;entryY=0.667;entryDx=0;entryDy=0;entryPerimeter=0;edgeStyle=orthogonalEdgeStyle;startArrow=none;startFill=0;" parent="1" target="0aPcPJzKvKqHbsKZW9t1-227" edge="1">
          <mxGeometry width="50" height="50" relative="1" as="geometry">
            <mxPoint x="2184" y="300" as="sourcePoint" />
            <mxPoint x="1970" y="550" as="targetPoint" />
            <Array as="points">
              <mxPoint x="2230" y="300" />
              <mxPoint x="2230" y="680" />
            </Array>
          </mxGeometry>
        </mxCell>
        <mxCell id="0aPcPJzKvKqHbsKZW9t1-231" value="showSeqMode" style="text;html=1;align=right;verticalAlign=bottom;whiteSpace=wrap;rounded=0;fontFamily=Lucida Console;spacingRight=12;spacingLeft=12;" parent="1" vertex="1">
          <mxGeometry x="2220" y="660" width="120" height="20" as="geometry" />
        </mxCell>
        <mxCell id="0aPcPJzKvKqHbsKZW9t1-233" value="" style="endArrow=none;html=1;rounded=0;edgeStyle=elbowEdgeStyle;startArrow=oval;startFill=1;" parent="1" edge="1">
          <mxGeometry width="50" height="50" relative="1" as="geometry">
            <mxPoint x="1830" y="190" as="sourcePoint" />
            <mxPoint x="2184" y="301" as="targetPoint" />
            <Array as="points">
              <mxPoint x="1830" y="270" />
            </Array>
          </mxGeometry>
        </mxCell>
        <mxCell id="0aPcPJzKvKqHbsKZW9t1-235" value="" style="endArrow=none;html=1;rounded=0;entryX=0;entryY=0.5;entryDx=0;entryDy=0;startArrow=oval;startFill=1;" parent="1" target="0aPcPJzKvKqHbsKZW9t1-218" edge="1">
          <mxGeometry width="50" height="50" relative="1" as="geometry">
            <mxPoint x="2230" y="540" as="sourcePoint" />
            <mxPoint x="2470" y="550" as="targetPoint" />
          </mxGeometry>
        </mxCell>
        <mxCell id="HHoJES0DGBQ5vZ7z1raS-5" value="" style="group" vertex="1" connectable="0" parent="1">
          <mxGeometry x="2320" y="527" width="26" height="21" as="geometry" />
        </mxCell>
        <mxCell id="HHoJES0DGBQ5vZ7z1raS-6" value="" style="triangle;whiteSpace=wrap;html=1;" vertex="1" parent="HHoJES0DGBQ5vZ7z1raS-5">
          <mxGeometry y="5" width="16" height="16" as="geometry" />
        </mxCell>
        <mxCell id="HHoJES0DGBQ5vZ7z1raS-7" value="" style="ellipse;whiteSpace=wrap;html=1;aspect=fixed;" vertex="1" parent="HHoJES0DGBQ5vZ7z1raS-5">
          <mxGeometry x="16" y="10" width="6" height="6" as="geometry" />
        </mxCell>
        <mxCell id="HHoJES0DGBQ5vZ7z1raS-8" value="blankTens" style="text;html=1;align=left;verticalAlign=bottom;whiteSpace=wrap;rounded=0;fontFamily=Lucida Console;spacingRight=0;spacingLeft=12;" vertex="1" parent="1">
          <mxGeometry x="2500" y="638.75" width="80" height="20" as="geometry" />
        </mxCell>
        <mxCell id="HHoJES0DGBQ5vZ7z1raS-10" value="blankOnes" style="text;html=1;align=left;verticalAlign=bottom;whiteSpace=wrap;rounded=0;fontFamily=Lucida Console;spacingRight=0;spacingLeft=12;" vertex="1" parent="1">
          <mxGeometry x="2360" y="523" width="80" height="20" as="geometry" />
        </mxCell>
        <mxCell id="HHoJES0DGBQ5vZ7z1raS-13" value="reset" style="text;html=1;align=right;verticalAlign=bottom;whiteSpace=wrap;rounded=0;fontFamily=Lucida Console;spacingRight=12;" vertex="1" parent="1">
          <mxGeometry x="2620" y="588.54" width="80" height="20" as="geometry" />
        </mxCell>
        <mxCell id="HHoJES0DGBQ5vZ7z1raS-14" value="" style="endArrow=none;html=1;rounded=0;exitX=0;exitY=0;exitDx=0;exitDy=0;" edge="1" source="HHoJES0DGBQ5vZ7z1raS-15" parent="1">
          <mxGeometry width="50" height="50" relative="1" as="geometry">
            <mxPoint x="2580" y="608.54" as="sourcePoint" />
            <mxPoint x="2700" y="608.54" as="targetPoint" />
          </mxGeometry>
        </mxCell>
        <mxCell id="HHoJES0DGBQ5vZ7z1raS-15" value="clock" style="text;html=1;align=right;verticalAlign=bottom;whiteSpace=wrap;rounded=0;fontFamily=Lucida Console;spacingRight=12;" vertex="1" parent="1">
          <mxGeometry x="2620" y="608.54" width="80" height="20" as="geometry" />
        </mxCell>
        <mxCell id="HHoJES0DGBQ5vZ7z1raS-16" value="" style="endArrow=none;html=1;rounded=0;exitX=0;exitY=1;exitDx=0;exitDy=0;" edge="1" source="HHoJES0DGBQ5vZ7z1raS-15" parent="1">
          <mxGeometry width="50" height="50" relative="1" as="geometry">
            <mxPoint x="2580" y="628.8499999999999" as="sourcePoint" />
            <mxPoint x="2700" y="628.8499999999999" as="targetPoint" />
          </mxGeometry>
        </mxCell>
        <mxCell id="HHoJES0DGBQ5vZ7z1raS-17" value="reset" style="text;html=1;align=right;verticalAlign=bottom;whiteSpace=wrap;rounded=0;fontFamily=Lucida Console;spacingRight=12;" vertex="1" parent="1">
          <mxGeometry x="2681" y="597.54" width="80" height="20" as="geometry" />
        </mxCell>
        <mxCell id="HHoJES0DGBQ5vZ7z1raS-18" value="clock" style="text;html=1;align=right;verticalAlign=bottom;whiteSpace=wrap;rounded=0;fontFamily=Lucida Console;spacingRight=12;" vertex="1" parent="1">
          <mxGeometry x="2681" y="617.54" width="80" height="20" as="geometry" />
        </mxCell>
        <mxCell id="HHoJES0DGBQ5vZ7z1raS-19" value="seg" style="text;html=1;align=right;verticalAlign=bottom;whiteSpace=wrap;rounded=0;fontFamily=Lucida Console;spacingRight=12;spacingLeft=12;" vertex="1" parent="1">
          <mxGeometry x="2780" y="459.25" width="80" height="20" as="geometry" />
        </mxCell>
        <mxCell id="HHoJES0DGBQ5vZ7z1raS-20" value="an" style="text;html=1;align=right;verticalAlign=bottom;whiteSpace=wrap;rounded=0;fontFamily=Lucida Console;spacingRight=12;spacingLeft=12;" vertex="1" parent="1">
          <mxGeometry x="2780" y="512.75" width="80" height="20" as="geometry" />
        </mxCell>
        <mxCell id="HHoJES0DGBQ5vZ7z1raS-22" value="" style="endArrow=none;html=1;rounded=0;strokeWidth=3;" edge="1" parent="1">
          <mxGeometry width="50" height="50" relative="1" as="geometry">
            <mxPoint x="2860" y="467.9999999999999" as="sourcePoint" />
            <mxPoint x="2980" y="467.9999999999999" as="targetPoint" />
          </mxGeometry>
        </mxCell>
        <mxCell id="HHoJES0DGBQ5vZ7z1raS-23" value="7" style="text;html=1;align=center;verticalAlign=bottom;whiteSpace=wrap;rounded=0;fontFamily=Lucida Console;fontStyle=0" vertex="1" parent="1">
          <mxGeometry x="2889.5" y="483.9999999999999" width="61" height="20" as="geometry" />
        </mxCell>
        <mxCell id="HHoJES0DGBQ5vZ7z1raS-24" value="" style="endArrow=none;html=1;rounded=0;strokeWidth=1;fontStyle=0" edge="1" parent="1">
          <mxGeometry width="50" height="50" relative="1" as="geometry">
            <mxPoint x="2915.5" y="478.9999999999999" as="sourcePoint" />
            <mxPoint x="2924.5" y="456.9999999999999" as="targetPoint" />
          </mxGeometry>
        </mxCell>
        <mxCell id="HHoJES0DGBQ5vZ7z1raS-25" value="" style="endArrow=none;html=1;rounded=0;strokeWidth=3;" edge="1" parent="1">
          <mxGeometry width="50" height="50" relative="1" as="geometry">
            <mxPoint x="2860" y="523.7499999999999" as="sourcePoint" />
            <mxPoint x="2980" y="523.7499999999999" as="targetPoint" />
          </mxGeometry>
        </mxCell>
        <mxCell id="HHoJES0DGBQ5vZ7z1raS-26" value="4" style="text;html=1;align=center;verticalAlign=bottom;whiteSpace=wrap;rounded=0;fontFamily=Lucida Console;fontStyle=0" vertex="1" parent="1">
          <mxGeometry x="2889.5" y="539.7499999999999" width="61" height="20" as="geometry" />
        </mxCell>
        <mxCell id="HHoJES0DGBQ5vZ7z1raS-27" value="" style="endArrow=none;html=1;rounded=0;strokeWidth=1;fontStyle=0" edge="1" parent="1">
          <mxGeometry width="50" height="50" relative="1" as="geometry">
            <mxPoint x="2915.5" y="534.7499999999999" as="sourcePoint" />
            <mxPoint x="2924.5" y="512.7499999999999" as="targetPoint" />
          </mxGeometry>
        </mxCell>
        <mxCell id="HHoJES0DGBQ5vZ7z1raS-28" value="seg" style="html=1;shadow=0;dashed=0;align=center;verticalAlign=middle;shape=mxgraph.arrows2.arrow;dy=0;dx=10;notch=0;fontFamily=Lucida Console;spacingRight=16;" vertex="1" parent="1">
          <mxGeometry x="2980" y="453.56" width="100" height="25" as="geometry" />
        </mxCell>
        <mxCell id="HHoJES0DGBQ5vZ7z1raS-29" value="an" style="html=1;shadow=0;dashed=0;align=center;verticalAlign=middle;shape=mxgraph.arrows2.arrow;dy=0;dx=10;notch=0;fontFamily=Lucida Console;spacingRight=16;" vertex="1" parent="1">
          <mxGeometry x="2980" y="507.75" width="100" height="25" as="geometry" />
        </mxCell>
      </root>
    </mxGraphModel>
  </diagram>
</mxfile>
